<?xml version="1.0" encoding="UTF-8"?>
<!DOCTYPE svg PUBLIC "-//W3C//DTD SVG 1.1//EN" "http://www.w3.org/Graphics/SVG/1.1/DTD/svg11.dtd">
<svg xmlns="http://www.w3.org/2000/svg" version="1.1" width="321px" height="321px" style="shape-rendering:geometricPrecision; text-rendering:geometricPrecision; image-rendering:optimizeQuality; fill-rule:evenodd; clip-rule:evenodd" xmlns:xlink="http://www.w3.org/1999/xlink">
<g><path style="opacity:1" fill="#171a1a" d="M 150.5,71.5 C 162.98,71.1132 174.98,73.2799 186.5,78C 189.759,79.2106 192.592,81.0439 195,83.5C 196.69,88.3922 195.023,91.3922 190,92.5C 173.327,83.5646 155.827,81.3979 137.5,86C 131.6,88.6335 125.6,90.6335 119.5,92C 114.715,88.74 114.381,85.0734 118.5,81C 128.746,75.9444 139.412,72.7778 150.5,71.5 Z"/></g>
<g><path style="opacity:1" fill="#18191a" d="M 103.5,91.5 C 105.527,91.3379 107.527,91.5045 109.5,92C 113.211,97.2558 117.045,102.422 121,107.5C 122.745,108.956 124.578,110.289 126.5,111.5C 145.986,98.1923 165.486,98.1923 185,111.5C 191.313,107.22 195.979,101.553 199,94.5C 201.21,91.7104 204.044,90.877 207.5,92C 233.375,118.04 239.542,148.207 226,182.5C 221.399,191.778 215.232,199.945 207.5,207C 205.5,207.667 203.5,207.667 201.5,207C 188.662,182.83 168.828,173.33 142,178.5C 135.924,175.785 135.091,171.952 139.5,167C 154.602,162.879 169.102,164.379 183,171.5C 193.538,157.739 194.205,143.406 185,128.5C 171.986,113.202 156.486,109.869 138.5,118.5C 143.889,120.859 149.556,121.859 155.5,121.5C 160.194,121.146 164.86,120.979 169.5,121C 174.833,124.667 174.833,128.333 169.5,132C 143.082,136.953 121.749,128.786 105.5,107.5C 92.2661,123.139 87.4327,141.139 91,161.5C 93.5237,172.545 98.1904,182.545 105,191.5C 108.799,186.699 112.966,182.199 117.5,178C 107.574,163.944 105.407,148.777 111,132.5C 113.832,126.799 117.498,126.133 122,130.5C 121.451,136.641 120.617,142.808 119.5,149C 121.63,170.963 133.63,183.13 155.5,185.5C 160.25,184.869 164.916,183.869 169.5,182.5C 174.844,183.345 176.677,186.345 175,191.5C 169.18,195.501 162.68,197.168 155.5,196.5C 144.448,196.649 134.615,193.316 126,186.5C 119.883,191.415 115.217,197.415 112,204.5C 109.321,207.835 106.155,208.335 102.5,206C 78.1837,181.087 72.0171,152.254 84,119.5C 88.785,108.915 95.285,99.5818 103.5,91.5 Z M 204.5,107.5 C 206.371,107.859 207.871,108.859 209,110.5C 226.403,138.234 225.403,165.234 206,191.5C 202.201,186.699 198.034,182.199 193.5,178C 206.806,158.867 206.806,139.7 193.5,120.5C 197.875,116.741 201.541,112.408 204.5,107.5 Z"/></g>
<g><path style="opacity:1" fill="#18191a" d="M 119.5,206.5 C 125.893,208.354 132.226,210.52 138.5,213C 156.067,217.192 173.067,215.026 189.5,206.5C 195.721,208.085 197.055,211.585 193.5,217C 168.167,229.667 142.833,229.667 117.5,217C 114.602,212.766 115.269,209.266 119.5,206.5 Z"/></g>
</svg>
